<mxfile host="app.diagrams.net" agent="Mozilla/5.0 (X11; Linux x86_64; rv:127.0) Gecko/20100101 Firefox/127.0" version="24.8.3">
  <diagram name="PÃ¡gina-1" id="iP2lA8PCmX-F6S4y8OPc">
    <mxGraphModel dx="1247" dy="663" grid="1" gridSize="10" guides="1" tooltips="1" connect="1" arrows="1" fold="1" page="1" pageScale="1" pageWidth="1169" pageHeight="827" math="0" shadow="0">
      <root>
        <mxCell id="0" />
        <mxCell id="1" parent="0" />
        <mxCell id="dlnSffa50vdFho1oHBXk-64" style="edgeStyle=none;shape=connector;rounded=0;orthogonalLoop=1;jettySize=auto;html=1;exitX=0.5;exitY=0;exitDx=0;exitDy=0;entryX=0.5;entryY=1;entryDx=0;entryDy=0;strokeColor=default;align=center;verticalAlign=middle;fontFamily=Helvetica;fontSize=11;fontColor=default;labelBackgroundColor=default;endArrow=none;endFill=0;" edge="1" parent="1" source="dlnSffa50vdFho1oHBXk-1" target="dlnSffa50vdFho1oHBXk-63">
          <mxGeometry relative="1" as="geometry" />
        </mxCell>
        <mxCell id="dlnSffa50vdFho1oHBXk-73" style="edgeStyle=none;shape=connector;rounded=0;orthogonalLoop=1;jettySize=auto;html=1;exitX=1;exitY=0.5;exitDx=0;exitDy=0;entryX=0;entryY=0.5;entryDx=0;entryDy=0;strokeColor=default;align=center;verticalAlign=middle;fontFamily=Helvetica;fontSize=11;fontColor=default;labelBackgroundColor=default;endArrow=none;endFill=0;" edge="1" parent="1" source="dlnSffa50vdFho1oHBXk-1" target="dlnSffa50vdFho1oHBXk-72">
          <mxGeometry relative="1" as="geometry" />
        </mxCell>
        <mxCell id="dlnSffa50vdFho1oHBXk-1" value="&lt;font style=&quot;font-size: 15px;&quot;&gt;Sucursales&lt;/font&gt;" style="rounded=0;whiteSpace=wrap;html=1;" vertex="1" parent="1">
          <mxGeometry x="350" y="420" width="120" height="60" as="geometry" />
        </mxCell>
        <mxCell id="dlnSffa50vdFho1oHBXk-69" style="edgeStyle=none;shape=connector;rounded=0;orthogonalLoop=1;jettySize=auto;html=1;exitX=0.5;exitY=0;exitDx=0;exitDy=0;entryX=0.5;entryY=1;entryDx=0;entryDy=0;strokeColor=default;align=center;verticalAlign=middle;fontFamily=Helvetica;fontSize=11;fontColor=default;labelBackgroundColor=default;endArrow=none;endFill=0;" edge="1" parent="1" source="dlnSffa50vdFho1oHBXk-2" target="dlnSffa50vdFho1oHBXk-55">
          <mxGeometry relative="1" as="geometry" />
        </mxCell>
        <mxCell id="dlnSffa50vdFho1oHBXk-2" value="&lt;font style=&quot;font-size: 15px;&quot;&gt;Hotel&lt;/font&gt;" style="rounded=0;whiteSpace=wrap;html=1;" vertex="1" parent="1">
          <mxGeometry x="720" y="419" width="120" height="60" as="geometry" />
        </mxCell>
        <mxCell id="dlnSffa50vdFho1oHBXk-3" value="&lt;font style=&quot;font-size: 15px;&quot;&gt;Vuelo&lt;/font&gt;" style="rounded=0;whiteSpace=wrap;html=1;" vertex="1" parent="1">
          <mxGeometry x="190" y="781.5" width="120" height="60" as="geometry" />
        </mxCell>
        <mxCell id="dlnSffa50vdFho1oHBXk-105" style="edgeStyle=none;shape=connector;rounded=0;orthogonalLoop=1;jettySize=auto;html=1;entryX=0;entryY=0.5;entryDx=0;entryDy=0;strokeColor=default;align=center;verticalAlign=middle;fontFamily=Helvetica;fontSize=11;fontColor=default;labelBackgroundColor=default;endArrow=none;endFill=0;" edge="1" parent="1" source="dlnSffa50vdFho1oHBXk-4" target="dlnSffa50vdFho1oHBXk-103">
          <mxGeometry relative="1" as="geometry" />
        </mxCell>
        <mxCell id="dlnSffa50vdFho1oHBXk-4" value="&lt;div style=&quot;font-size: 13px;&quot;&gt;&lt;font style=&quot;font-size: 15px;&quot;&gt;Turista&lt;/font&gt;&lt;/div&gt;" style="rounded=0;whiteSpace=wrap;html=1;" vertex="1" parent="1">
          <mxGeometry x="720" y="783" width="120" height="60" as="geometry" />
        </mxCell>
        <mxCell id="dlnSffa50vdFho1oHBXk-10" style="rounded=0;orthogonalLoop=1;jettySize=auto;html=1;exitX=1;exitY=0.5;exitDx=0;exitDy=0;entryX=0;entryY=0.25;entryDx=0;entryDy=0;endArrow=none;endFill=0;" edge="1" parent="1" source="dlnSffa50vdFho1oHBXk-5" target="dlnSffa50vdFho1oHBXk-1">
          <mxGeometry relative="1" as="geometry" />
        </mxCell>
        <mxCell id="dlnSffa50vdFho1oHBXk-5" value="&lt;u&gt;cod_sucursal&lt;/u&gt;" style="ellipse;whiteSpace=wrap;html=1;" vertex="1" parent="1">
          <mxGeometry x="190" y="380" width="80" height="40" as="geometry" />
        </mxCell>
        <mxCell id="dlnSffa50vdFho1oHBXk-11" style="edgeStyle=none;shape=connector;rounded=0;orthogonalLoop=1;jettySize=auto;html=1;exitX=1;exitY=0.5;exitDx=0;exitDy=0;entryX=0;entryY=0.5;entryDx=0;entryDy=0;strokeColor=default;align=center;verticalAlign=middle;fontFamily=Helvetica;fontSize=11;fontColor=default;labelBackgroundColor=default;endArrow=none;endFill=0;" edge="1" parent="1" source="dlnSffa50vdFho1oHBXk-7" target="dlnSffa50vdFho1oHBXk-1">
          <mxGeometry relative="1" as="geometry" />
        </mxCell>
        <mxCell id="dlnSffa50vdFho1oHBXk-7" value="direcccion" style="ellipse;whiteSpace=wrap;html=1;" vertex="1" parent="1">
          <mxGeometry x="190" y="430" width="80" height="40" as="geometry" />
        </mxCell>
        <mxCell id="dlnSffa50vdFho1oHBXk-12" style="edgeStyle=none;shape=connector;rounded=0;orthogonalLoop=1;jettySize=auto;html=1;exitX=1;exitY=0.5;exitDx=0;exitDy=0;entryX=0;entryY=0.75;entryDx=0;entryDy=0;strokeColor=default;align=center;verticalAlign=middle;fontFamily=Helvetica;fontSize=11;fontColor=default;labelBackgroundColor=default;endArrow=none;endFill=0;" edge="1" parent="1" source="dlnSffa50vdFho1oHBXk-9" target="dlnSffa50vdFho1oHBXk-1">
          <mxGeometry relative="1" as="geometry" />
        </mxCell>
        <mxCell id="dlnSffa50vdFho1oHBXk-9" value="telefono" style="ellipse;whiteSpace=wrap;html=1;" vertex="1" parent="1">
          <mxGeometry x="190" y="480" width="80" height="40" as="geometry" />
        </mxCell>
        <mxCell id="dlnSffa50vdFho1oHBXk-30" style="edgeStyle=orthogonalEdgeStyle;shape=connector;rounded=0;orthogonalLoop=1;jettySize=auto;html=1;exitX=0;exitY=0.5;exitDx=0;exitDy=0;entryX=1;entryY=0.25;entryDx=0;entryDy=0;strokeColor=default;align=center;verticalAlign=middle;fontFamily=Helvetica;fontSize=11;fontColor=default;labelBackgroundColor=default;endArrow=none;endFill=0;" edge="1" parent="1" source="dlnSffa50vdFho1oHBXk-13" target="dlnSffa50vdFho1oHBXk-2">
          <mxGeometry relative="1" as="geometry">
            <Array as="points">
              <mxPoint x="975" y="434" />
            </Array>
          </mxGeometry>
        </mxCell>
        <mxCell id="dlnSffa50vdFho1oHBXk-13" value="nombre" style="ellipse;whiteSpace=wrap;html=1;" vertex="1" parent="1">
          <mxGeometry x="975" y="329" width="80" height="40" as="geometry" />
        </mxCell>
        <mxCell id="dlnSffa50vdFho1oHBXk-29" style="edgeStyle=orthogonalEdgeStyle;shape=connector;rounded=0;orthogonalLoop=1;jettySize=auto;html=1;exitX=0;exitY=0.5;exitDx=0;exitDy=0;entryX=1;entryY=0.25;entryDx=0;entryDy=0;strokeColor=default;align=center;verticalAlign=middle;fontFamily=Helvetica;fontSize=11;fontColor=default;labelBackgroundColor=default;endArrow=none;endFill=0;" edge="1" parent="1" source="dlnSffa50vdFho1oHBXk-14" target="dlnSffa50vdFho1oHBXk-2">
          <mxGeometry relative="1" as="geometry" />
        </mxCell>
        <mxCell id="dlnSffa50vdFho1oHBXk-14" value="&lt;u&gt;cod_hotel&lt;/u&gt;" style="ellipse;whiteSpace=wrap;html=1;" vertex="1" parent="1">
          <mxGeometry x="880" y="329" width="80" height="40" as="geometry" />
        </mxCell>
        <mxCell id="dlnSffa50vdFho1oHBXk-32" style="edgeStyle=orthogonalEdgeStyle;shape=connector;rounded=0;orthogonalLoop=1;jettySize=auto;html=1;exitX=0;exitY=0.5;exitDx=0;exitDy=0;entryX=1;entryY=0.25;entryDx=0;entryDy=0;strokeColor=default;align=center;verticalAlign=middle;fontFamily=Helvetica;fontSize=11;fontColor=default;labelBackgroundColor=default;endArrow=none;endFill=0;" edge="1" parent="1" source="dlnSffa50vdFho1oHBXk-15" target="dlnSffa50vdFho1oHBXk-2">
          <mxGeometry relative="1" as="geometry">
            <Array as="points">
              <mxPoint x="1169" y="434" />
            </Array>
          </mxGeometry>
        </mxCell>
        <mxCell id="dlnSffa50vdFho1oHBXk-15" value="telefono" style="ellipse;whiteSpace=wrap;html=1;" vertex="1" parent="1">
          <mxGeometry x="1169" y="329" width="80" height="40" as="geometry" />
        </mxCell>
        <mxCell id="dlnSffa50vdFho1oHBXk-16" value="direccion" style="ellipse;whiteSpace=wrap;html=1;" vertex="1" parent="1">
          <mxGeometry x="1070" y="330" width="80" height="40" as="geometry" />
        </mxCell>
        <mxCell id="dlnSffa50vdFho1oHBXk-58" style="edgeStyle=none;shape=connector;rounded=0;orthogonalLoop=1;jettySize=auto;html=1;exitX=0.5;exitY=0;exitDx=0;exitDy=0;entryX=0.5;entryY=1;entryDx=0;entryDy=0;strokeColor=default;align=center;verticalAlign=middle;fontFamily=Helvetica;fontSize=11;fontColor=default;labelBackgroundColor=default;endArrow=none;endFill=0;" edge="1" parent="1" source="dlnSffa50vdFho1oHBXk-17" target="dlnSffa50vdFho1oHBXk-56">
          <mxGeometry relative="1" as="geometry" />
        </mxCell>
        <mxCell id="dlnSffa50vdFho1oHBXk-17" value="ciudad" style="rounded=0;whiteSpace=wrap;html=1;" vertex="1" parent="1">
          <mxGeometry x="540" y="200" width="120" height="60" as="geometry" />
        </mxCell>
        <mxCell id="dlnSffa50vdFho1oHBXk-18" value="provincia" style="rounded=0;whiteSpace=wrap;html=1;" vertex="1" parent="1">
          <mxGeometry x="380" y="100" width="120" height="60" as="geometry" />
        </mxCell>
        <mxCell id="dlnSffa50vdFho1oHBXk-19" value="plazas_disp." style="ellipse;whiteSpace=wrap;html=1;" vertex="1" parent="1">
          <mxGeometry x="1260" y="330" width="80" height="40" as="geometry" />
        </mxCell>
        <mxCell id="dlnSffa50vdFho1oHBXk-49" style="edgeStyle=none;shape=connector;rounded=0;orthogonalLoop=1;jettySize=auto;html=1;exitX=0;exitY=0.5;exitDx=0;exitDy=0;strokeColor=default;align=center;verticalAlign=middle;fontFamily=Helvetica;fontSize=11;fontColor=default;labelBackgroundColor=default;endArrow=none;endFill=0;" edge="1" parent="1" source="dlnSffa50vdFho1oHBXk-20" target="dlnSffa50vdFho1oHBXk-17">
          <mxGeometry relative="1" as="geometry" />
        </mxCell>
        <mxCell id="dlnSffa50vdFho1oHBXk-20" value="&lt;u&gt;cod_ciudad&lt;/u&gt;" style="ellipse;whiteSpace=wrap;html=1;" vertex="1" parent="1">
          <mxGeometry x="710" y="210" width="80" height="40" as="geometry" />
        </mxCell>
        <mxCell id="dlnSffa50vdFho1oHBXk-48" style="edgeStyle=none;shape=connector;rounded=0;orthogonalLoop=1;jettySize=auto;html=1;exitX=0.5;exitY=1;exitDx=0;exitDy=0;strokeColor=default;align=center;verticalAlign=middle;fontFamily=Helvetica;fontSize=11;fontColor=default;labelBackgroundColor=default;endArrow=none;endFill=0;" edge="1" parent="1" source="dlnSffa50vdFho1oHBXk-21" target="dlnSffa50vdFho1oHBXk-18">
          <mxGeometry relative="1" as="geometry" />
        </mxCell>
        <mxCell id="dlnSffa50vdFho1oHBXk-21" value="&lt;u&gt;cod_provincia&lt;/u&gt;" style="ellipse;whiteSpace=wrap;html=1;" vertex="1" parent="1">
          <mxGeometry x="400" y="20" width="80" height="40" as="geometry" />
        </mxCell>
        <mxCell id="dlnSffa50vdFho1oHBXk-60" style="edgeStyle=none;shape=connector;rounded=0;orthogonalLoop=1;jettySize=auto;html=1;exitX=1;exitY=0.5;exitDx=0;exitDy=0;strokeColor=default;align=center;verticalAlign=middle;fontFamily=Helvetica;fontSize=11;fontColor=default;labelBackgroundColor=default;endArrow=none;endFill=0;" edge="1" parent="1" source="dlnSffa50vdFho1oHBXk-22" target="dlnSffa50vdFho1oHBXk-59">
          <mxGeometry relative="1" as="geometry" />
        </mxCell>
        <mxCell id="dlnSffa50vdFho1oHBXk-22" value="pais" style="rounded=0;whiteSpace=wrap;html=1;" vertex="1" parent="1">
          <mxGeometry x="70" y="100" width="120" height="60" as="geometry" />
        </mxCell>
        <mxCell id="dlnSffa50vdFho1oHBXk-47" style="edgeStyle=none;shape=connector;rounded=0;orthogonalLoop=1;jettySize=auto;html=1;exitX=0.5;exitY=1;exitDx=0;exitDy=0;strokeColor=default;align=center;verticalAlign=middle;fontFamily=Helvetica;fontSize=11;fontColor=default;labelBackgroundColor=default;endArrow=none;endFill=0;" edge="1" parent="1" source="dlnSffa50vdFho1oHBXk-23" target="dlnSffa50vdFho1oHBXk-22">
          <mxGeometry relative="1" as="geometry" />
        </mxCell>
        <mxCell id="dlnSffa50vdFho1oHBXk-23" value="&lt;u&gt;cod_pais&lt;/u&gt;" style="ellipse;whiteSpace=wrap;html=1;" vertex="1" parent="1">
          <mxGeometry x="90" y="20" width="80" height="40" as="geometry" />
        </mxCell>
        <mxCell id="dlnSffa50vdFho1oHBXk-107" style="edgeStyle=orthogonalEdgeStyle;shape=connector;rounded=0;orthogonalLoop=1;jettySize=auto;html=1;exitX=0;exitY=0.5;exitDx=0;exitDy=0;strokeColor=default;align=center;verticalAlign=middle;fontFamily=Helvetica;fontSize=11;fontColor=default;labelBackgroundColor=default;endArrow=none;endFill=0;" edge="1" parent="1" source="dlnSffa50vdFho1oHBXk-24">
          <mxGeometry relative="1" as="geometry">
            <mxPoint x="780" y="840" as="targetPoint" />
          </mxGeometry>
        </mxCell>
        <mxCell id="dlnSffa50vdFho1oHBXk-24" value="nombre" style="ellipse;whiteSpace=wrap;html=1;" vertex="1" parent="1">
          <mxGeometry x="800" y="880" width="80" height="40" as="geometry" />
        </mxCell>
        <mxCell id="dlnSffa50vdFho1oHBXk-106" style="edgeStyle=orthogonalEdgeStyle;shape=connector;rounded=0;orthogonalLoop=1;jettySize=auto;html=1;exitX=1;exitY=0.5;exitDx=0;exitDy=0;entryX=0.5;entryY=1;entryDx=0;entryDy=0;strokeColor=default;align=center;verticalAlign=middle;fontFamily=Helvetica;fontSize=11;fontColor=default;labelBackgroundColor=default;endArrow=none;endFill=0;" edge="1" parent="1" source="dlnSffa50vdFho1oHBXk-25" target="dlnSffa50vdFho1oHBXk-4">
          <mxGeometry relative="1" as="geometry" />
        </mxCell>
        <mxCell id="dlnSffa50vdFho1oHBXk-25" value="&lt;u&gt;cod_turista&lt;/u&gt;" style="ellipse;whiteSpace=wrap;html=1;" vertex="1" parent="1">
          <mxGeometry x="680" y="880" width="80" height="40" as="geometry" />
        </mxCell>
        <mxCell id="dlnSffa50vdFho1oHBXk-109" style="edgeStyle=orthogonalEdgeStyle;shape=connector;rounded=0;orthogonalLoop=1;jettySize=auto;html=1;exitX=0;exitY=0.5;exitDx=0;exitDy=0;entryX=0.5;entryY=1;entryDx=0;entryDy=0;strokeColor=default;align=center;verticalAlign=middle;fontFamily=Helvetica;fontSize=11;fontColor=default;labelBackgroundColor=default;endArrow=none;endFill=0;" edge="1" parent="1" source="dlnSffa50vdFho1oHBXk-26" target="dlnSffa50vdFho1oHBXk-4">
          <mxGeometry relative="1" as="geometry" />
        </mxCell>
        <mxCell id="dlnSffa50vdFho1oHBXk-26" value="telefono" style="ellipse;whiteSpace=wrap;html=1;" vertex="1" parent="1">
          <mxGeometry x="800" y="930" width="80" height="40" as="geometry" />
        </mxCell>
        <mxCell id="dlnSffa50vdFho1oHBXk-110" style="edgeStyle=orthogonalEdgeStyle;shape=connector;rounded=0;orthogonalLoop=1;jettySize=auto;html=1;strokeColor=default;align=center;verticalAlign=middle;fontFamily=Helvetica;fontSize=11;fontColor=default;labelBackgroundColor=default;endArrow=none;endFill=0;" edge="1" parent="1" source="dlnSffa50vdFho1oHBXk-27">
          <mxGeometry relative="1" as="geometry">
            <mxPoint x="780" y="840" as="targetPoint" />
          </mxGeometry>
        </mxCell>
        <mxCell id="dlnSffa50vdFho1oHBXk-27" value="direccion" style="ellipse;whiteSpace=wrap;html=1;" vertex="1" parent="1">
          <mxGeometry x="740" y="990" width="80" height="40" as="geometry" />
        </mxCell>
        <mxCell id="dlnSffa50vdFho1oHBXk-108" style="edgeStyle=orthogonalEdgeStyle;shape=connector;rounded=0;orthogonalLoop=1;jettySize=auto;html=1;exitX=1;exitY=0.5;exitDx=0;exitDy=0;strokeColor=default;align=center;verticalAlign=middle;fontFamily=Helvetica;fontSize=11;fontColor=default;labelBackgroundColor=default;endArrow=none;endFill=0;" edge="1" parent="1" source="dlnSffa50vdFho1oHBXk-28">
          <mxGeometry relative="1" as="geometry">
            <mxPoint x="780" y="840" as="targetPoint" />
          </mxGeometry>
        </mxCell>
        <mxCell id="dlnSffa50vdFho1oHBXk-28" value="apellidos" style="ellipse;whiteSpace=wrap;html=1;" vertex="1" parent="1">
          <mxGeometry x="680" y="930" width="80" height="40" as="geometry" />
        </mxCell>
        <mxCell id="dlnSffa50vdFho1oHBXk-31" style="edgeStyle=orthogonalEdgeStyle;shape=connector;rounded=0;orthogonalLoop=1;jettySize=auto;html=1;exitX=0;exitY=0.5;exitDx=0;exitDy=0;entryX=1;entryY=0.25;entryDx=0;entryDy=0;strokeColor=default;align=center;verticalAlign=middle;fontFamily=Helvetica;fontSize=11;fontColor=default;labelBackgroundColor=default;endArrow=none;endFill=0;" edge="1" parent="1" source="dlnSffa50vdFho1oHBXk-16" target="dlnSffa50vdFho1oHBXk-2">
          <mxGeometry relative="1" as="geometry">
            <Array as="points">
              <mxPoint x="1070" y="434" />
            </Array>
          </mxGeometry>
        </mxCell>
        <mxCell id="dlnSffa50vdFho1oHBXk-33" style="edgeStyle=orthogonalEdgeStyle;shape=connector;rounded=0;orthogonalLoop=1;jettySize=auto;html=1;exitX=0;exitY=0.5;exitDx=0;exitDy=0;entryX=1;entryY=0.25;entryDx=0;entryDy=0;strokeColor=default;align=center;verticalAlign=middle;fontFamily=Helvetica;fontSize=11;fontColor=default;labelBackgroundColor=default;endArrow=none;endFill=0;" edge="1" parent="1" source="dlnSffa50vdFho1oHBXk-19" target="dlnSffa50vdFho1oHBXk-2">
          <mxGeometry relative="1" as="geometry">
            <Array as="points">
              <mxPoint x="1260" y="434" />
            </Array>
          </mxGeometry>
        </mxCell>
        <mxCell id="dlnSffa50vdFho1oHBXk-41" style="edgeStyle=none;shape=connector;rounded=0;orthogonalLoop=1;jettySize=auto;html=1;exitX=1;exitY=0.5;exitDx=0;exitDy=0;entryX=0;entryY=0.5;entryDx=0;entryDy=0;strokeColor=default;align=center;verticalAlign=middle;fontFamily=Helvetica;fontSize=11;fontColor=default;labelBackgroundColor=default;endArrow=none;endFill=0;" edge="1" parent="1" source="dlnSffa50vdFho1oHBXk-34" target="dlnSffa50vdFho1oHBXk-3">
          <mxGeometry relative="1" as="geometry" />
        </mxCell>
        <mxCell id="dlnSffa50vdFho1oHBXk-34" value="fecha y hora" style="ellipse;whiteSpace=wrap;html=1;" vertex="1" parent="1">
          <mxGeometry x="40" y="761.5" width="80" height="40" as="geometry" />
        </mxCell>
        <mxCell id="dlnSffa50vdFho1oHBXk-40" style="edgeStyle=none;shape=connector;rounded=0;orthogonalLoop=1;jettySize=auto;html=1;exitX=1;exitY=0.5;exitDx=0;exitDy=0;entryX=0;entryY=0.25;entryDx=0;entryDy=0;strokeColor=default;align=center;verticalAlign=middle;fontFamily=Helvetica;fontSize=11;fontColor=default;labelBackgroundColor=default;endArrow=none;endFill=0;" edge="1" parent="1" source="dlnSffa50vdFho1oHBXk-35" target="dlnSffa50vdFho1oHBXk-3">
          <mxGeometry relative="1" as="geometry" />
        </mxCell>
        <mxCell id="dlnSffa50vdFho1oHBXk-35" value="&lt;u&gt;cod_vuelo&lt;/u&gt;" style="ellipse;whiteSpace=wrap;html=1;" vertex="1" parent="1">
          <mxGeometry x="40" y="705" width="80" height="40" as="geometry" />
        </mxCell>
        <mxCell id="dlnSffa50vdFho1oHBXk-36" value="destino" style="ellipse;whiteSpace=wrap;html=1;" vertex="1" parent="1">
          <mxGeometry x="40" y="861.5" width="80" height="40" as="geometry" />
        </mxCell>
        <mxCell id="dlnSffa50vdFho1oHBXk-38" value="origen" style="ellipse;whiteSpace=wrap;html=1;" vertex="1" parent="1">
          <mxGeometry x="40" y="811.5" width="80" height="40" as="geometry" />
        </mxCell>
        <mxCell id="dlnSffa50vdFho1oHBXk-42" style="edgeStyle=none;shape=connector;rounded=0;orthogonalLoop=1;jettySize=auto;html=1;exitX=1;exitY=0.5;exitDx=0;exitDy=0;entryX=-0.014;entryY=0.657;entryDx=0;entryDy=0;entryPerimeter=0;strokeColor=default;align=center;verticalAlign=middle;fontFamily=Helvetica;fontSize=11;fontColor=default;labelBackgroundColor=default;endArrow=none;endFill=0;" edge="1" parent="1" source="dlnSffa50vdFho1oHBXk-38" target="dlnSffa50vdFho1oHBXk-3">
          <mxGeometry relative="1" as="geometry" />
        </mxCell>
        <mxCell id="dlnSffa50vdFho1oHBXk-43" style="edgeStyle=none;shape=connector;rounded=0;orthogonalLoop=1;jettySize=auto;html=1;exitX=1;exitY=0.5;exitDx=0;exitDy=0;entryX=0;entryY=0.75;entryDx=0;entryDy=0;strokeColor=default;align=center;verticalAlign=middle;fontFamily=Helvetica;fontSize=11;fontColor=default;labelBackgroundColor=default;endArrow=none;endFill=0;" edge="1" parent="1" source="dlnSffa50vdFho1oHBXk-36" target="dlnSffa50vdFho1oHBXk-3">
          <mxGeometry relative="1" as="geometry" />
        </mxCell>
        <mxCell id="dlnSffa50vdFho1oHBXk-71" style="edgeStyle=none;shape=connector;rounded=0;orthogonalLoop=1;jettySize=auto;html=1;exitX=0.5;exitY=0;exitDx=0;exitDy=0;entryX=0.75;entryY=1;entryDx=0;entryDy=0;strokeColor=default;align=center;verticalAlign=middle;fontFamily=Helvetica;fontSize=11;fontColor=default;labelBackgroundColor=default;endArrow=none;endFill=0;" edge="1" parent="1" source="dlnSffa50vdFho1oHBXk-55" target="dlnSffa50vdFho1oHBXk-17">
          <mxGeometry relative="1" as="geometry" />
        </mxCell>
        <mxCell id="dlnSffa50vdFho1oHBXk-55" value="pertenece" style="rhombus;whiteSpace=wrap;html=1;fontFamily=Helvetica;fontSize=11;fontColor=default;labelBackgroundColor=default;" vertex="1" parent="1">
          <mxGeometry x="740" y="330" width="80" height="40" as="geometry" />
        </mxCell>
        <mxCell id="dlnSffa50vdFho1oHBXk-68" style="edgeStyle=none;shape=connector;rounded=0;orthogonalLoop=1;jettySize=auto;html=1;exitX=0;exitY=0.5;exitDx=0;exitDy=0;entryX=1;entryY=0.5;entryDx=0;entryDy=0;strokeColor=default;align=center;verticalAlign=middle;fontFamily=Helvetica;fontSize=11;fontColor=default;labelBackgroundColor=default;endArrow=none;endFill=0;" edge="1" parent="1" source="dlnSffa50vdFho1oHBXk-56" target="dlnSffa50vdFho1oHBXk-18">
          <mxGeometry relative="1" as="geometry" />
        </mxCell>
        <mxCell id="dlnSffa50vdFho1oHBXk-56" value="pertenece" style="rhombus;whiteSpace=wrap;html=1;fontFamily=Helvetica;fontSize=11;fontColor=default;labelBackgroundColor=default;" vertex="1" parent="1">
          <mxGeometry x="560" y="110" width="80" height="40" as="geometry" />
        </mxCell>
        <mxCell id="dlnSffa50vdFho1oHBXk-61" style="edgeStyle=none;shape=connector;rounded=0;orthogonalLoop=1;jettySize=auto;html=1;exitX=1;exitY=0.5;exitDx=0;exitDy=0;entryX=0;entryY=0.5;entryDx=0;entryDy=0;strokeColor=default;align=center;verticalAlign=middle;fontFamily=Helvetica;fontSize=11;fontColor=default;labelBackgroundColor=default;endArrow=none;endFill=0;" edge="1" parent="1" source="dlnSffa50vdFho1oHBXk-59" target="dlnSffa50vdFho1oHBXk-18">
          <mxGeometry relative="1" as="geometry" />
        </mxCell>
        <mxCell id="dlnSffa50vdFho1oHBXk-59" value="pertenece" style="rhombus;whiteSpace=wrap;html=1;fontFamily=Helvetica;fontSize=11;fontColor=default;labelBackgroundColor=default;" vertex="1" parent="1">
          <mxGeometry x="244" y="110" width="80" height="40" as="geometry" />
        </mxCell>
        <mxCell id="dlnSffa50vdFho1oHBXk-70" style="edgeStyle=none;shape=connector;rounded=0;orthogonalLoop=1;jettySize=auto;html=1;exitX=0.5;exitY=0;exitDx=0;exitDy=0;entryX=0.25;entryY=1;entryDx=0;entryDy=0;strokeColor=default;align=center;verticalAlign=middle;fontFamily=Helvetica;fontSize=11;fontColor=default;labelBackgroundColor=default;endArrow=none;endFill=0;" edge="1" parent="1" source="dlnSffa50vdFho1oHBXk-63" target="dlnSffa50vdFho1oHBXk-17">
          <mxGeometry relative="1" as="geometry" />
        </mxCell>
        <mxCell id="dlnSffa50vdFho1oHBXk-63" value="pertenece" style="rhombus;whiteSpace=wrap;html=1;fontFamily=Helvetica;fontSize=11;fontColor=default;labelBackgroundColor=default;" vertex="1" parent="1">
          <mxGeometry x="370" y="330" width="80" height="40" as="geometry" />
        </mxCell>
        <mxCell id="dlnSffa50vdFho1oHBXk-74" style="edgeStyle=none;shape=connector;rounded=0;orthogonalLoop=1;jettySize=auto;html=1;exitX=1;exitY=0.5;exitDx=0;exitDy=0;entryX=0;entryY=0.5;entryDx=0;entryDy=0;strokeColor=default;align=center;verticalAlign=middle;fontFamily=Helvetica;fontSize=11;fontColor=default;labelBackgroundColor=default;endArrow=none;endFill=0;" edge="1" parent="1" source="dlnSffa50vdFho1oHBXk-72" target="dlnSffa50vdFho1oHBXk-2">
          <mxGeometry relative="1" as="geometry" />
        </mxCell>
        <mxCell id="dlnSffa50vdFho1oHBXk-72" value="contrata" style="rhombus;whiteSpace=wrap;html=1;fontFamily=Helvetica;fontSize=11;fontColor=default;labelBackgroundColor=default;" vertex="1" parent="1">
          <mxGeometry x="554.5" y="429" width="80" height="40" as="geometry" />
        </mxCell>
        <mxCell id="dlnSffa50vdFho1oHBXk-76" value="&lt;font style=&quot;font-size: 15px;&quot;&gt;primera&lt;/font&gt;" style="rounded=0;whiteSpace=wrap;html=1;" vertex="1" parent="1">
          <mxGeometry x="270" y="1200" width="120" height="60" as="geometry" />
        </mxCell>
        <mxCell id="dlnSffa50vdFho1oHBXk-77" value="&lt;font style=&quot;font-size: 15px;&quot;&gt;turista&lt;/font&gt;" style="rounded=0;whiteSpace=wrap;html=1;" vertex="1" parent="1">
          <mxGeometry x="110" y="1200" width="120" height="60" as="geometry" />
        </mxCell>
        <mxCell id="dlnSffa50vdFho1oHBXk-79" style="edgeStyle=none;shape=connector;rounded=0;orthogonalLoop=1;jettySize=auto;html=1;exitX=0.5;exitY=0;exitDx=0;exitDy=0;entryX=0.5;entryY=0;entryDx=0;entryDy=0;strokeColor=default;align=center;verticalAlign=middle;fontFamily=Helvetica;fontSize=11;fontColor=default;labelBackgroundColor=default;endArrow=none;endFill=0;" edge="1" parent="1" source="dlnSffa50vdFho1oHBXk-78" target="dlnSffa50vdFho1oHBXk-76">
          <mxGeometry relative="1" as="geometry" />
        </mxCell>
        <mxCell id="dlnSffa50vdFho1oHBXk-80" style="edgeStyle=none;shape=connector;rounded=0;orthogonalLoop=1;jettySize=auto;html=1;exitX=0.5;exitY=1;exitDx=0;exitDy=0;entryX=0.5;entryY=0;entryDx=0;entryDy=0;strokeColor=default;align=center;verticalAlign=middle;fontFamily=Helvetica;fontSize=11;fontColor=default;labelBackgroundColor=default;endArrow=none;endFill=0;" edge="1" parent="1" source="dlnSffa50vdFho1oHBXk-78" target="dlnSffa50vdFho1oHBXk-77">
          <mxGeometry relative="1" as="geometry" />
        </mxCell>
        <mxCell id="dlnSffa50vdFho1oHBXk-78" value="" style="triangle;whiteSpace=wrap;html=1;fontFamily=Helvetica;fontSize=11;fontColor=default;labelBackgroundColor=default;rotation=90;" vertex="1" parent="1">
          <mxGeometry x="230" y="1110" width="40" height="60" as="geometry" />
        </mxCell>
        <mxCell id="dlnSffa50vdFho1oHBXk-83" value="" style="edgeStyle=none;shape=connector;rounded=0;orthogonalLoop=1;jettySize=auto;html=1;strokeColor=default;align=center;verticalAlign=middle;fontFamily=Helvetica;fontSize=11;fontColor=default;labelBackgroundColor=default;endArrow=none;endFill=0;" edge="1" parent="1" source="dlnSffa50vdFho1oHBXk-82" target="dlnSffa50vdFho1oHBXk-3">
          <mxGeometry relative="1" as="geometry" />
        </mxCell>
        <mxCell id="dlnSffa50vdFho1oHBXk-84" style="edgeStyle=none;shape=connector;rounded=0;orthogonalLoop=1;jettySize=auto;html=1;exitX=0.5;exitY=1;exitDx=0;exitDy=0;entryX=0;entryY=0.5;entryDx=0;entryDy=0;strokeColor=default;align=center;verticalAlign=middle;fontFamily=Helvetica;fontSize=11;fontColor=default;labelBackgroundColor=default;endArrow=none;endFill=0;" edge="1" parent="1" source="dlnSffa50vdFho1oHBXk-82" target="dlnSffa50vdFho1oHBXk-78">
          <mxGeometry relative="1" as="geometry" />
        </mxCell>
        <mxCell id="dlnSffa50vdFho1oHBXk-82" value="&lt;font style=&quot;font-size: 15px;&quot;&gt;plazas&lt;/font&gt;" style="rounded=0;whiteSpace=wrap;html=1;" vertex="1" parent="1">
          <mxGeometry x="190" y="1010" width="120" height="60" as="geometry" />
        </mxCell>
        <mxCell id="dlnSffa50vdFho1oHBXk-87" style="edgeStyle=none;shape=connector;rounded=0;orthogonalLoop=1;jettySize=auto;html=1;exitX=0;exitY=0.5;exitDx=0;exitDy=0;entryX=1;entryY=0.5;entryDx=0;entryDy=0;strokeColor=default;align=center;verticalAlign=middle;fontFamily=Helvetica;fontSize=11;fontColor=default;labelBackgroundColor=default;endArrow=none;endFill=0;" edge="1" parent="1" source="dlnSffa50vdFho1oHBXk-85" target="dlnSffa50vdFho1oHBXk-3">
          <mxGeometry relative="1" as="geometry" />
        </mxCell>
        <mxCell id="dlnSffa50vdFho1oHBXk-88" style="edgeStyle=none;shape=connector;rounded=0;orthogonalLoop=1;jettySize=auto;html=1;exitX=1;exitY=0.5;exitDx=0;exitDy=0;strokeColor=default;align=center;verticalAlign=middle;fontFamily=Helvetica;fontSize=11;fontColor=default;labelBackgroundColor=default;endArrow=none;endFill=0;" edge="1" parent="1" source="dlnSffa50vdFho1oHBXk-85" target="dlnSffa50vdFho1oHBXk-4">
          <mxGeometry relative="1" as="geometry" />
        </mxCell>
        <mxCell id="dlnSffa50vdFho1oHBXk-85" value="elige" style="rhombus;whiteSpace=wrap;html=1;fontFamily=Helvetica;fontSize=11;fontColor=default;labelBackgroundColor=default;" vertex="1" parent="1">
          <mxGeometry x="500" y="791.5" width="80" height="40" as="geometry" />
        </mxCell>
        <mxCell id="dlnSffa50vdFho1oHBXk-86" value="dispone" style="rhombus;whiteSpace=wrap;html=1;fontFamily=Helvetica;fontSize=11;fontColor=default;labelBackgroundColor=default;" vertex="1" parent="1">
          <mxGeometry x="210" y="900" width="80" height="40" as="geometry" />
        </mxCell>
        <mxCell id="dlnSffa50vdFho1oHBXk-90" style="edgeStyle=none;shape=connector;rounded=0;orthogonalLoop=1;jettySize=auto;html=1;exitX=0.5;exitY=0;exitDx=0;exitDy=0;strokeColor=default;align=center;verticalAlign=middle;fontFamily=Helvetica;fontSize=11;fontColor=default;labelBackgroundColor=default;endArrow=none;endFill=0;" edge="1" parent="1" source="dlnSffa50vdFho1oHBXk-89" target="dlnSffa50vdFho1oHBXk-2">
          <mxGeometry relative="1" as="geometry" />
        </mxCell>
        <mxCell id="dlnSffa50vdFho1oHBXk-91" style="edgeStyle=none;shape=connector;rounded=0;orthogonalLoop=1;jettySize=auto;html=1;exitX=0.5;exitY=1;exitDx=0;exitDy=0;strokeColor=default;align=center;verticalAlign=middle;fontFamily=Helvetica;fontSize=11;fontColor=default;labelBackgroundColor=default;endArrow=none;endFill=0;" edge="1" parent="1" source="dlnSffa50vdFho1oHBXk-89" target="dlnSffa50vdFho1oHBXk-4">
          <mxGeometry relative="1" as="geometry" />
        </mxCell>
        <mxCell id="dlnSffa50vdFho1oHBXk-89" value="hospeda" style="rhombus;whiteSpace=wrap;html=1;fontFamily=Helvetica;fontSize=11;fontColor=default;labelBackgroundColor=default;" vertex="1" parent="1">
          <mxGeometry x="740" y="620" width="80" height="40" as="geometry" />
        </mxCell>
        <mxCell id="dlnSffa50vdFho1oHBXk-93" value="&lt;font style=&quot;font-size: 15px;&quot;&gt;turista&lt;/font&gt;" style="rounded=0;whiteSpace=wrap;html=1;" vertex="1" parent="1">
          <mxGeometry x="975" y="970" width="120" height="60" as="geometry" />
        </mxCell>
        <mxCell id="dlnSffa50vdFho1oHBXk-94" style="edgeStyle=none;shape=connector;rounded=0;orthogonalLoop=1;jettySize=auto;html=1;exitX=0.5;exitY=0;exitDx=0;exitDy=0;entryX=0.5;entryY=0;entryDx=0;entryDy=0;strokeColor=default;align=center;verticalAlign=middle;fontFamily=Helvetica;fontSize=11;fontColor=default;labelBackgroundColor=default;endArrow=none;endFill=0;" edge="1" source="dlnSffa50vdFho1oHBXk-96" target="dlnSffa50vdFho1oHBXk-100" parent="1">
          <mxGeometry relative="1" as="geometry" />
        </mxCell>
        <mxCell id="dlnSffa50vdFho1oHBXk-95" style="edgeStyle=none;shape=connector;rounded=0;orthogonalLoop=1;jettySize=auto;html=1;exitX=0.5;exitY=1;exitDx=0;exitDy=0;entryX=0.5;entryY=0;entryDx=0;entryDy=0;strokeColor=default;align=center;verticalAlign=middle;fontFamily=Helvetica;fontSize=11;fontColor=default;labelBackgroundColor=default;endArrow=none;endFill=0;" edge="1" source="dlnSffa50vdFho1oHBXk-96" target="dlnSffa50vdFho1oHBXk-93" parent="1">
          <mxGeometry relative="1" as="geometry" />
        </mxCell>
        <mxCell id="dlnSffa50vdFho1oHBXk-96" value="" style="triangle;whiteSpace=wrap;html=1;fontFamily=Helvetica;fontSize=11;fontColor=default;labelBackgroundColor=default;rotation=90;" vertex="1" parent="1">
          <mxGeometry x="1095" y="880" width="40" height="60" as="geometry" />
        </mxCell>
        <mxCell id="dlnSffa50vdFho1oHBXk-97" style="edgeStyle=none;shape=connector;rounded=0;orthogonalLoop=1;jettySize=auto;html=1;exitX=0.5;exitY=1;exitDx=0;exitDy=0;entryX=0;entryY=0.5;entryDx=0;entryDy=0;strokeColor=default;align=center;verticalAlign=middle;fontFamily=Helvetica;fontSize=11;fontColor=default;labelBackgroundColor=default;endArrow=none;endFill=0;" edge="1" source="dlnSffa50vdFho1oHBXk-98" target="dlnSffa50vdFho1oHBXk-96" parent="1">
          <mxGeometry relative="1" as="geometry" />
        </mxCell>
        <mxCell id="dlnSffa50vdFho1oHBXk-101" style="edgeStyle=none;shape=connector;rounded=0;orthogonalLoop=1;jettySize=auto;html=1;exitX=0.5;exitY=0;exitDx=0;exitDy=0;entryX=0.5;entryY=1;entryDx=0;entryDy=0;strokeColor=default;align=center;verticalAlign=middle;fontFamily=Helvetica;fontSize=11;fontColor=default;labelBackgroundColor=default;endArrow=none;endFill=0;" edge="1" parent="1" source="dlnSffa50vdFho1oHBXk-98" target="dlnSffa50vdFho1oHBXk-99">
          <mxGeometry relative="1" as="geometry" />
        </mxCell>
        <mxCell id="dlnSffa50vdFho1oHBXk-98" value="hopedaje" style="rounded=0;whiteSpace=wrap;html=1;" vertex="1" parent="1">
          <mxGeometry x="1055" y="783" width="120" height="60" as="geometry" />
        </mxCell>
        <mxCell id="dlnSffa50vdFho1oHBXk-102" style="edgeStyle=none;shape=connector;rounded=0;orthogonalLoop=1;jettySize=auto;html=1;exitX=0;exitY=0;exitDx=0;exitDy=0;entryX=1;entryY=1;entryDx=0;entryDy=0;strokeColor=default;align=center;verticalAlign=middle;fontFamily=Helvetica;fontSize=11;fontColor=default;labelBackgroundColor=default;endArrow=none;endFill=0;" edge="1" parent="1" source="dlnSffa50vdFho1oHBXk-99" target="dlnSffa50vdFho1oHBXk-2">
          <mxGeometry relative="1" as="geometry" />
        </mxCell>
        <mxCell id="dlnSffa50vdFho1oHBXk-99" value="dispone" style="rhombus;whiteSpace=wrap;html=1;fontFamily=Helvetica;fontSize=11;fontColor=default;labelBackgroundColor=default;" vertex="1" parent="1">
          <mxGeometry x="1075" y="670" width="80" height="40" as="geometry" />
        </mxCell>
        <mxCell id="dlnSffa50vdFho1oHBXk-100" value="&lt;font style=&quot;font-size: 15px;&quot;&gt;primera&lt;/font&gt;" style="rounded=0;whiteSpace=wrap;html=1;" vertex="1" parent="1">
          <mxGeometry x="1135" y="970" width="120" height="60" as="geometry" />
        </mxCell>
        <mxCell id="dlnSffa50vdFho1oHBXk-104" style="edgeStyle=none;shape=connector;rounded=0;orthogonalLoop=1;jettySize=auto;html=1;exitX=1;exitY=0.5;exitDx=0;exitDy=0;entryX=0;entryY=0.5;entryDx=0;entryDy=0;strokeColor=default;align=center;verticalAlign=middle;fontFamily=Helvetica;fontSize=11;fontColor=default;labelBackgroundColor=default;endArrow=none;endFill=0;" edge="1" parent="1" source="dlnSffa50vdFho1oHBXk-103" target="dlnSffa50vdFho1oHBXk-98">
          <mxGeometry relative="1" as="geometry" />
        </mxCell>
        <mxCell id="dlnSffa50vdFho1oHBXk-103" value="dispone" style="rhombus;whiteSpace=wrap;html=1;fontFamily=Helvetica;fontSize=11;fontColor=default;labelBackgroundColor=default;" vertex="1" parent="1">
          <mxGeometry x="910" y="793" width="80" height="40" as="geometry" />
        </mxCell>
      </root>
    </mxGraphModel>
  </diagram>
</mxfile>
